<?xml version="1.0" encoding="utf-8"?>
<!-- Generator: Adobe Illustrator 22.1.0, SVG Export Plug-In . SVG Version: 6.00 Build 0)  -->
<svg version="1.1" id="Layer_1" xmlns="http://www.w3.org/2000/svg" xmlns:xlink="http://www.w3.org/1999/xlink" x="0px" y="0px"
	 viewBox="0 0 560 560.2" style="enable-background:new 0 0 560 560.2;" xml:space="preserve">
<style type="text/css">
	.st0{opacity:0.43;fill:#29ABE2;enable-background:new    ;}
	.st1{fill:#29ABE2;fill-opacity:0;}
	.st2{fill:#29ABE2;}
</style>
<path class="st0" d="M408.3,157.7c40.1,21.3-168.1,38.1-205.8,47.6c-33.7,8.5-118.8,34.7-146.9,90.5c-6.9,13.8-16,43.4-6.7,57.4
	c34.3,51.6,134.9,34.8,154.6,30.9c10.8-2.1,18.3-4.2,28.9-7.1c36.7-10.1,120-33.9,208.1-97.9c33.1-24,82.5-59.9,83-89
	c0.3-15.3-11.8-24.6-21.1-27.8C465.8,149.9,390.1,148,408.3,157.7z"/>
<g>
	<g>
		<path d="M231.6,205.3L142,337.4h-17.3l6.6-132.1h17.2L141.9,315l73.3-109.6H231.6z"/>
		<path d="M178.5,337.4l48.1-132.1H302l-5.7,15.6h-59.4l-13.2,36.2h55.3l-5.7,15.6h-55.3l-17.9,49.1h59.4l-5.7,15.6L178.5,337.4
			L178.5,337.4z"/>
		<path d="M304.5,340c-8.5,0-15.8-1.4-21.9-4.3s-10.5-7.2-13.5-12.9c-2.9-5.9-4.2-13.1-3.8-21.7s2.7-18.6,6.8-29.8
			c3.9-10.6,8.7-20.2,14.5-28.6c5.8-8.4,12.3-15.6,19.6-21.6c7-5.8,14.7-10.3,23-13.4c8.3-3.1,16.7-4.7,25.3-4.7c4,0,7.8,0.3,11.3,1
			c3.5,0.7,6.7,1.5,9.7,2.7c2.4,0.9,4.9,2.1,7.7,3.7c2.8,1.6,4.9,2.9,6.6,4l-7.7,21.2h-1.4c-1.3-1.9-2.7-3.8-4.2-5.5
			c-1.5-1.7-3.8-3.6-7-5.6c-2.6-1.8-5.8-3.3-9.6-4.4c-3.8-1.2-8.1-1.8-13-1.8c-11.6,0-22.7,4.8-33.4,14.4
			c-10.6,9.6-18.9,22.3-24.6,38.2c-3.2,8.9-5.1,16.6-5.6,23.2c-0.5,6.6,0.2,12.2,2,16.9c1.8,4.6,4.7,8,8.7,10.4
			c4,2.4,9.1,3.6,15.2,3.6c4.5,0,9.2-0.4,13.9-1.1c4.7-0.7,8.9-1.8,12.5-3.2l12.4-34.2h-27.9l5.6-15.4h43.7l-21,57.7
			c-2.4,1-5.6,2.3-9.6,3.8c-4,1.5-7.6,2.8-10.9,3.6c-4.4,1.3-8.3,2.3-11.8,2.9C313,339.6,309,340,304.5,340z"/>
		<path d="M336,337.4l88.7-132.1h19.8l-7.4,132.1h-16.9l2.5-36.9h-46.1l-24.4,36.9H336z M423.6,285.5H410h-23.5H423.6z"/>
	</g>
</g>
<g id="_x36_vBa8L.tif">
	
		<image style="overflow:visible;enable-background:new    ;" width="1327" height="1320" id="Layer_0_1_" xlink:href="3C544FCB.png"  transform="matrix(4.090000e-02 1.270000e-02 -2.510000e-02 3.910000e-02 404.9259 223.5984)">
	</image>
</g>
<polygon points="442,237.4 442,246.9 434.2,240.5 436.8,227.8 "/>
<polygon points="142,337.4 158.6,337.4 212.7,251.3 226.6,205.3 "/>
<polygon points="338.2,285.5 321.9,330.5 332,330.5 348.2,286.4 "/>
<polygon points="251.1,210.9 207.6,330.5 183.9,330.5 228.6,213.5 "/>
<polygon points="327,220 286.8,330.5 271.2,294.8 291.7,246.9 312.8,220 "/>
<path d="M135.1,292.6"/>
<polygon class="st1" points="398.9,243.7 398.9,243.7 390.8,254 392.5,253.5 "/>
<polygon points="385.4,266.7 392.8,253.2 390.8,262.5 "/>
<path class="st2" d="M304,460.1"/>
</svg>
